<mxfile host="65bd71144e">
    <diagram id="zYOsf57dtdu7_1eew7I-" name="第 1 页">
        <mxGraphModel dx="705" dy="546" grid="1" gridSize="10" guides="1" tooltips="1" connect="1" arrows="1" fold="1" page="1" pageScale="1" pageWidth="1920" pageHeight="1200" background="none" math="0" shadow="0">
            <root>
                <mxCell id="0"/>
                <mxCell id="1" parent="0"/>
                <mxCell id="262" value="" style="rounded=0;whiteSpace=wrap;html=1;container=1;" parent="1" vertex="1">
                    <mxGeometry x="290" y="160" width="240" height="210" as="geometry">
                        <mxRectangle x="290" y="160" width="70" height="50" as="alternateBounds"/>
                    </mxGeometry>
                </mxCell>
                <mxCell id="259" value="" style="pointerEvents=1;verticalLabelPosition=bottom;shadow=0;dashed=0;align=center;html=1;verticalAlign=top;shape=mxgraph.electrical.resistors.resistor_1;" parent="262" vertex="1">
                    <mxGeometry x="27.692307692307693" y="86.89655172413792" width="92.3076923076923" height="14.482758620689653" as="geometry"/>
                </mxCell>
                <mxCell id="260" value="" style="pointerEvents=1;verticalLabelPosition=bottom;shadow=0;dashed=0;align=center;html=1;verticalAlign=top;shape=mxgraph.electrical.resistors.resistor_2;" parent="262" vertex="1">
                    <mxGeometry x="27.692307692307693" y="86.89655172413792" width="92.3076923076923" height="14.482758620689653" as="geometry"/>
                </mxCell>
                <mxCell id="261" value="" style="pointerEvents=1;verticalLabelPosition=bottom;shadow=0;dashed=0;align=center;html=1;verticalAlign=top;shape=mxgraph.electrical.resistors.potentiometer_1;" parent="262" vertex="1">
                    <mxGeometry x="120" y="86.89655172413792" width="92.3076923076923" height="28.965517241379306" as="geometry"/>
                </mxCell>
                <mxCell id="263" value="Start" style="ellipse" vertex="1" parent="1">
                    <mxGeometry x="130" y="440" width="80" height="30" as="geometry"/>
                </mxCell>
                <mxCell id="271" value="" style="edgeStyle=none;html=1;entryX=0.5;entryY=1;entryDx=0;entryDy=0;" edge="1" parent="1" source="264" target="268">
                    <mxGeometry relative="1" as="geometry">
                        <Array as="points">
                            <mxPoint x="440" y="520"/>
                        </Array>
                    </mxGeometry>
                </mxCell>
                <mxCell id="264" value="Entry" style="rounded=1;" vertex="1" parent="1">
                    <mxGeometry x="250" y="510" width="80" height="30" as="geometry"/>
                </mxCell>
                <mxCell id="265" value="" style="edgeStyle=elbowEdgeStyle;elbow=horizontal;" edge="1" source="263" target="264" parent="1">
                    <mxGeometry relative="1" as="geometry"/>
                </mxCell>
                <mxCell id="266" value="Entry" style="rounded=1;" vertex="1" parent="1">
                    <mxGeometry x="250" y="410" width="80" height="30" as="geometry"/>
                </mxCell>
                <mxCell id="267" value="" style="edgeStyle=elbowEdgeStyle;elbow=horizontal;" edge="1" source="264" target="266" parent="1">
                    <mxGeometry relative="1" as="geometry"/>
                </mxCell>
                <mxCell id="268" value="Entry" style="rounded=1;" vertex="1" parent="1">
                    <mxGeometry x="400" y="460" width="80" height="30" as="geometry"/>
                </mxCell>
                <mxCell id="269" value="" style="edgeStyle=elbowEdgeStyle;elbow=horizontal;" edge="1" source="266" target="268" parent="1">
                    <mxGeometry relative="1" as="geometry"/>
                </mxCell>
                <mxCell id="270" value="未命名图层" parent="0"/>
            </root>
        </mxGraphModel>
    </diagram>
</mxfile>